<svg width="24" height="24" viewBox="0 0 24 24" fill="none" xmlns="http://www.w3.org/2000/svg">
<path d="M2.75 6.57143C2.75 5.82821 2.75045 5.31015 2.77938 4.90513C2.80781 4.50729 2.86092 4.2763 2.93773 4.10024C3.16473 3.57997 3.57997 3.16473 4.10024 2.93773C4.2763 2.86092 4.50729 2.80781 4.90513 2.77938C5.31015 2.75045 5.82821 2.75 6.57143 2.75C7.31465 2.75 7.83271 2.75045 8.23773 2.77938C8.63556 2.80781 8.86655 2.86092 9.04261 2.93773C9.56288 3.16473 9.97813 3.57997 10.2051 4.10024C10.2819 4.2763 10.3351 4.50729 10.3635 4.90513C10.3924 5.31015 10.3929 5.82821 10.3929 6.57143C10.3929 7.31465 10.3924 7.83271 10.3635 8.23773C10.3351 8.63556 10.2819 8.86655 10.2051 9.04261C9.97813 9.56288 9.56288 9.97813 9.04261 10.2051C8.86655 10.2819 8.63556 10.3351 8.23773 10.3635C7.83271 10.3924 7.31465 10.3929 6.57143 10.3929C5.82821 10.3929 5.31015 10.3924 4.90513 10.3635C4.50729 10.3351 4.2763 10.2819 4.10024 10.2051C3.57997 9.97813 3.16473 9.56288 2.93773 9.04261C2.86092 8.86655 2.80781 8.63556 2.77938 8.23773C2.75045 7.83271 2.75 7.31465 2.75 6.57143Z" stroke="white" stroke-width="1.5"/>
<path d="M2.75 17.4286C2.75 16.6854 2.75045 16.1673 2.77938 15.7623C2.80781 15.3645 2.86092 15.1335 2.93773 14.9574C3.16473 14.4372 3.57997 14.0219 4.10024 13.7949C4.2763 13.7181 4.50729 13.665 4.90513 13.6366C5.31015 13.6076 5.82821 13.6072 6.57143 13.6072C7.31465 13.6072 7.83271 13.6076 8.23773 13.6366C8.63556 13.665 8.86655 13.7181 9.04261 13.7949C9.56288 14.0219 9.97813 14.4372 10.2051 14.9574C10.2819 15.1335 10.3351 15.3645 10.3635 15.7623C10.3924 16.1673 10.3929 16.6854 10.3929 17.4286C10.3929 18.1718 10.3924 18.6899 10.3635 19.0949C10.3351 19.4927 10.2819 19.7237 10.2051 19.8998C9.97813 20.4201 9.56288 20.8353 9.04261 21.0623C8.86655 21.1391 8.63556 21.1922 8.23773 21.2207C7.83271 21.2496 7.31465 21.25 6.57143 21.25C5.82821 21.25 5.31015 21.2496 4.90513 21.2207C4.50729 21.1922 4.2763 21.1391 4.10024 21.0623C3.57997 20.8353 3.16473 20.4201 2.93773 19.8998C2.86092 19.7237 2.80781 19.4927 2.77938 19.0949C2.75045 18.6899 2.75 18.1718 2.75 17.4286Z" stroke="white" stroke-width="1.5"/>
<path d="M13.6069 6.57143C13.6069 5.82821 13.6074 5.31015 13.6363 4.90513C13.6647 4.50729 13.7179 4.2763 13.7947 4.10024C14.0217 3.57997 14.4369 3.16473 14.9572 2.93773C15.1332 2.86092 15.3642 2.80781 15.7621 2.77938C16.1671 2.75045 16.6851 2.75 17.4284 2.75C18.1716 2.75 18.6896 2.75045 19.0947 2.77938C19.4925 2.80781 19.7235 2.86092 19.8995 2.93773C20.4198 3.16473 20.8351 3.57997 21.0621 4.10024C21.1389 4.2763 21.192 4.50729 21.2204 4.90513C21.2493 5.31015 21.2498 5.82821 21.2498 6.57143C21.2498 7.31465 21.2493 7.83271 21.2204 8.23773C21.192 8.63556 21.1389 8.86655 21.0621 9.04261C20.8351 9.56288 20.4198 9.97813 19.8995 10.2051C19.7235 10.2819 19.4925 10.3351 19.0947 10.3635C18.6896 10.3924 18.1716 10.3929 17.4284 10.3929C16.6851 10.3929 16.1671 10.3924 15.7621 10.3635C15.3642 10.3351 15.1332 10.2819 14.9572 10.2051C14.4369 9.97813 14.0217 9.56288 13.7947 9.04261C13.7179 8.86655 13.6647 8.63556 13.6363 8.23773C13.6074 7.83271 13.6069 7.31465 13.6069 6.57143Z" stroke="white" stroke-width="1.5"/>
<path d="M13.6069 17.4286C13.6069 16.6854 13.6074 16.1673 13.6363 15.7623C13.6647 15.3645 13.7179 15.1335 13.7947 14.9574C14.0217 14.4372 14.4369 14.0219 14.9572 13.7949C15.1332 13.7181 15.3642 13.665 15.7621 13.6366C16.1671 13.6076 16.6851 13.6072 17.4284 13.6072C18.1716 13.6072 18.6896 13.6076 19.0947 13.6366C19.4925 13.665 19.7235 13.7181 19.8995 13.7949C20.4198 14.0219 20.8351 14.4372 21.0621 14.9574C21.1389 15.1335 21.192 15.3645 21.2204 15.7623C21.2493 16.1673 21.2498 16.6854 21.2498 17.4286C21.2498 18.1718 21.2493 18.6899 21.2204 19.0949C21.192 19.4927 21.1389 19.7237 21.0621 19.8998C20.8351 20.4201 20.4198 20.8353 19.8995 21.0623C19.7235 21.1391 19.4925 21.1922 19.0947 21.2207C18.6896 21.2496 18.1716 21.25 17.4284 21.25C16.6851 21.25 16.1671 21.2496 15.7621 21.2207C15.3642 21.1922 15.1332 21.1391 14.9572 21.0623C14.4369 20.8353 14.0217 20.4201 13.7947 19.8998C13.7179 19.7237 13.6647 19.4927 13.6363 19.0949C13.6074 18.6899 13.6069 18.1718 13.6069 17.4286Z" stroke="white" stroke-width="1.5"/>
</svg>
